<svg width="500" height="500" viewBox="0 0 500 500" fill="none" xmlns="http://www.w3.org/2000/svg">
<mask id="mask0_1_3" style="mask-type:alpha" maskUnits="userSpaceOnUse" x="28" y="129" width="443" height="343">
<rect x="28" y="129" width="443" height="343" rx="54" fill="white"/>
</mask>
<g mask="url(#mask0_1_3)">
<rect x="28" y="129" width="443" height="343" rx="54" fill="#ECE1E1"/>
<rect y="81" width="81" height="303" rx="30" fill="#AC2B37"/>
<rect x="419" y="81" width="81" height="303" rx="30" fill="#AC2B37"/>
</g>
<path d="M253.184 50.8803C255.051 48.8456 254.915 45.6827 252.88 43.8158C250.846 41.9489 247.683 42.0849 245.816 44.1197L253.184 50.8803ZM208.076 92.6479L204.391 89.2675L208.076 92.6479ZM291.273 99.279L295.117 102.476L291.273 99.279ZM253.344 152.697L295.117 102.476L287.429 96.0816L245.656 146.303L253.344 152.697ZM289.735 91H209.549V101H289.735V91ZM211.76 96.0282L253.184 50.8803L245.816 44.1197L204.391 89.2675L211.76 96.0282ZM209.549 91C212.16 91 213.525 94.1044 211.76 96.0282L204.391 89.2675C200.273 93.7565 203.457 101 209.549 101V91ZM295.117 102.476C298.91 97.9159 295.667 91 289.735 91V101C287.193 101 285.803 98.0361 287.429 96.0816L295.117 102.476Z" fill="#ECE1E1"/>
<path fill-rule="evenodd" clip-rule="evenodd" d="M199.038 282.5C200.957 277.018 202 271.124 202 264.987C202 235.716 178.271 211.987 149 211.987C119.729 211.987 96 235.716 96 264.987C96 271.124 97.0431 277.018 98.9618 282.5C106.194 261.835 125.866 247.013 149 247.013C172.134 247.013 191.806 261.835 199.038 282.5Z" fill="#AC2B37"/>
<path fill-rule="evenodd" clip-rule="evenodd" d="M401.038 282.513C402.957 277.031 404 271.137 404 265C404 235.729 380.271 212 351 212C321.729 212 298 235.729 298 265C298 271.137 299.043 277.031 300.962 282.513C308.194 261.848 327.866 247.026 351 247.026C374.134 247.026 393.806 261.848 401.038 282.513Z" fill="#AC2B37"/>
<circle cx="249.5" cy="45.5" r="26.5" fill="#AC2B37"/>
<path d="M109.32 439C105.224 439 102.536 438.701 101.256 438.104C99.976 437.507 99.08 436.483 98.568 435.032L70.28 356.952C70.28 355.331 73.3093 353.453 79.368 351.32C85.512 349.187 91.6987 348.12 97.928 348.12C105.949 348.12 110.216 350.637 110.728 355.672L115.08 396.248H116.872L120.456 355.672C120.883 350.637 126.643 348.12 137.736 348.12C142.003 348.12 144.861 348.717 146.312 349.912C147.763 351.021 148.573 352.515 148.744 354.392L152.968 396.248H154.76L158.088 355.672C158.344 353.197 161.245 351.32 166.792 350.04C172.424 348.76 177.971 348.12 183.432 348.12C188.979 348.12 192.733 348.931 194.696 350.552C196.744 352.173 197.768 353.88 197.768 355.672L170.376 435.032C169.437 437.677 163.123 439 151.432 439C147.933 439 145.587 438.701 144.392 438.104C143.197 437.507 142.387 436.483 141.96 435.032L135.304 412.76H133.768L126.984 435.032C126.216 437.677 120.328 439 109.32 439ZM239.704 435.288C239.704 436.397 237.101 437.293 231.896 437.976C226.691 438.659 221.485 439 216.28 439C211.075 439 207.747 438.701 206.296 438.104C204.845 437.507 204.12 436.568 204.12 435.288V352.984C204.12 348.888 216.408 346.84 240.984 346.84C255.832 346.84 265.645 347.864 270.424 349.912C276.227 352.301 280.152 355.544 282.2 359.64C284.931 364.931 286.296 371.715 286.296 379.992C286.296 391.341 284.333 399.576 280.408 404.696C277.592 408.451 274.776 410.883 271.96 411.992C269.144 413.101 266.797 413.912 264.92 414.424C263.128 414.851 260.867 415.192 258.136 415.448C254.381 415.789 249.261 415.96 242.776 415.96L239.704 415.832V435.288ZM239.832 394.584H242.904C244.525 394.584 245.805 394.371 246.744 393.944C247.683 393.432 248.493 392.152 249.176 390.104C249.944 387.971 250.328 385.027 250.328 381.272C250.328 377.432 249.901 374.531 249.048 372.568C248.28 370.52 247.469 369.325 246.616 368.984C245.848 368.557 244.909 368.344 243.8 368.344H239.832V394.584ZM330.332 435.928C330.332 436.867 327.729 437.635 322.524 438.232C317.319 438.744 312.071 439 306.78 439C301.575 439 298.247 438.787 296.796 438.36C295.345 437.848 294.62 437.037 294.62 435.928V356.312C294.62 354.435 297.095 352.6 302.044 350.808C306.993 348.931 312.54 347.992 318.684 347.992C324.145 347.992 327.729 349.144 329.436 351.448C330.033 352.301 330.332 353.155 330.332 354.008V435.928ZM381.452 439H351.244C347.063 439 344.247 438.701 342.796 438.104C341.345 437.507 340.62 436.525 340.62 435.16V354.392C340.62 352.173 341.559 350.595 343.436 349.656C345.313 348.632 348.556 348.12 353.164 348.12H381.964C398.348 348.12 409.655 351.363 415.884 357.848C422.113 364.248 425.228 375.939 425.228 392.92C425.228 409.901 421.985 421.848 415.5 428.76C409.015 435.587 397.665 439 381.452 439ZM380.428 367.192C378.38 367.192 377.015 367.363 376.332 367.704V419.416L381.196 419.928C383.756 419.928 385.676 417.88 386.956 413.784C388.321 409.688 389.004 402.605 389.004 392.536C389.004 382.467 388.321 375.725 386.956 372.312C385.591 368.899 383.415 367.192 380.428 367.192Z" fill="black"/>
<path fill-rule="evenodd" clip-rule="evenodd" d="M109.311 353.663C84.557 353.664 77.9523 368.358 77.1492 373.285C76.1207 379.595 70.0077 384.001 63.4955 383.126C56.9833 382.251 52.5379 376.426 53.5665 370.115C55.9766 355.328 71.5413 330.594 109.76 330.592C116.351 330.592 121.595 335.757 121.471 342.127C121.347 348.498 115.903 353.663 109.311 353.663Z" fill="black"/>
</svg>
